M48
; DRILL file {KiCad 6.0.0} date sam. 17 sept. 2022 11:35:33
; FORMAT={-:-/ absolute / inch / decimal}
; #@! TF.CreationDate,2022-09-17T11:35:33+02:00
; #@! TF.GenerationSoftware,Kicad,Pcbnew,6.0.0
; #@! TF.FileFunction,Plated,1,4,PTH
FMAT,2
INCH
; #@! TA.AperFunction,Plated,PTH,ViaDrill
T1C0.0120
; #@! TA.AperFunction,Plated,PTH,ComponentDrill
T2C0.0157
; #@! TA.AperFunction,Plated,PTH,ComponentDrill
T3C0.0236
; #@! TA.AperFunction,Plated,PTH,ComponentDrill
T4C0.0433
; #@! TA.AperFunction,Plated,PTH,ComponentDrill
T5C0.0984
%
G90
G05
T1
X4.4094Y-3.5039
X4.4094Y-3.5827
X4.4094Y-3.6614
X4.4094Y-3.7402
X4.4094Y-3.8189
X4.4094Y-3.8976
X4.4094Y-4.0551
X4.4094Y-4.1339
X4.4094Y-4.2126
X4.4094Y-4.3701
X4.4094Y-4.4488
X4.4094Y-4.5276
X4.4567Y-3.8839
X4.5079Y-3.4843
X4.5217Y-3.5906
X4.5217Y-3.811
X4.5276Y-4.2421
X4.5276Y-4.2717
X4.5276Y-4.5276
X4.5571Y-4.2421
X4.5571Y-4.2717
X4.5717Y-4.4488
X4.5827Y-3.6713
X4.5866Y-3.4843
X4.626Y-4.5669
X4.6319Y-4.3701
X4.6654Y-3.4843
X4.6654Y-4.685
X4.6654Y-4.7835
X4.7343Y-4.6161
X4.7441Y-3.4843
X4.7441Y-4.5669
X4.7441Y-4.7835
X4.7776Y-4.0256
X4.7776Y-4.065
X4.7776Y-4.1102
X4.7776Y-4.1575
X4.7776Y-4.2028
X4.7776Y-4.2421
X4.8228Y-3.4843
X4.8228Y-4.5669
X4.8228Y-4.7835
X4.8622Y-4.1339
X4.8622Y-4.685
X4.9016Y-3.4843
X4.9016Y-4.5669
X4.9016Y-4.7835
X4.9626Y-4.1339
X4.9803Y-3.4843
X4.9803Y-4.5669
X4.9803Y-4.7835
X5.0591Y-4.5669
X5.0591Y-4.7835
X5.0886Y-4.1142
X5.0886Y-4.1535
X5.1181Y-4.5669
X5.1181Y-4.6063
X5.1378Y-3.4843
X5.1378Y-4.7835
X5.1382Y-4.3898
X5.1575Y-4.5669
X5.1575Y-4.6063
X5.1811Y-3.9567
X5.1969Y-4.0256
X5.2165Y-3.4843
X5.2165Y-4.7835
X5.252Y-4.1732
X5.252Y-4.2323
X5.2559Y-4.5669
X5.2559Y-4.6457
X5.2559Y-4.7244
X5.2953Y-3.4843
X5.2953Y-4.1043
X5.2953Y-4.7835
X5.3445Y-4.2756
X5.3543Y-4.1142
X5.374Y-3.4843
X5.374Y-4.3012
X5.374Y-4.7835
X5.4035Y-4.2756
X5.4055Y-4.063
X5.4331Y-3.9075
X5.4331Y-4.3012
X5.4528Y-3.4843
X5.4528Y-3.9862
X5.4528Y-4.7835
X5.4626Y-3.878
X5.4626Y-4.2756
X5.4626Y-4.3307
X5.4902Y-3.9075
X5.4921Y-4.3701
X5.5Y-4.0787
X5.5Y-4.2205
X5.5197Y-4.0433
X5.5315Y-3.4843
X5.5315Y-3.8425
X5.5315Y-4.435
X5.5315Y-4.7835
X5.5413Y-4.3075
X5.5591Y-4.1024
X5.5709Y-4.0433
X5.6102Y-3.4843
X5.6102Y-4.7835
X5.622Y-4.1024
X5.622Y-4.1654
X5.689Y-3.4843
X5.689Y-4.7835
X5.7047Y-3.9386
X5.7087Y-3.8031
X5.7283Y-4.435
X5.7343Y-3.963
X5.7677Y-3.4843
X5.7677Y-4.0157
X5.7677Y-4.2913
X5.7677Y-4.7835
X5.7795Y-4.1732
X5.7953Y-4.2067
X5.8071Y-4.0157
X5.8071Y-4.435
X5.8465Y-3.4843
X5.8465Y-4.0157
X5.8465Y-4.7835
X5.8661Y-4.1673
X5.8661Y-4.2362
X5.8661Y-4.3051
X5.876Y-3.813
X5.876Y-3.863
X5.8858Y-4.0157
X5.8906Y-3.913
X5.9252Y-3.4843
X5.9252Y-4.7835
X5.9291Y-4.1339
X5.9291Y-4.2028
X5.9291Y-4.2717
X5.9291Y-4.3799
X5.9882Y-3.9626
X5.9972Y-4.0067
X6.0039Y-3.4843
X6.0039Y-4.7835
X6.0827Y-3.4843
X6.0827Y-4.7835
X6.122Y-3.7165
X6.122Y-3.8504
X6.1614Y-3.4843
X6.1614Y-4.7835
X6.2402Y-3.4843
X6.2402Y-4.7835
X6.3189Y-3.4843
X6.3189Y-4.7835
X6.3976Y-3.4843
X6.3976Y-4.7835
X6.4035Y-3.8012
X6.4035Y-3.876
X6.4035Y-3.9193
X6.4035Y-3.9941
X6.4035Y-4.0374
X6.4035Y-4.1122
X6.4035Y-4.1555
X6.4035Y-4.2303
X6.4035Y-4.2736
X6.4035Y-4.3484
X6.4035Y-4.3917
X6.4035Y-4.4665
X6.4272Y-3.626
X6.4272Y-4.5472
X6.4646Y-4.685
X6.4764Y-3.4843
X6.4764Y-4.7835
X6.4961Y-3.8386
X6.4961Y-3.9567
X6.4961Y-4.0748
X6.4961Y-4.1929
X6.4961Y-4.311
X6.4961Y-4.4291
X6.5551Y-3.4843
X6.5551Y-4.7835
X6.565Y-4.5472
X6.5886Y-3.8012
X6.5886Y-3.8386
X6.5886Y-3.9193
X6.5886Y-3.9567
X6.5886Y-4.0374
X6.5886Y-4.0748
X6.5886Y-4.1555
X6.5886Y-4.1929
X6.5886Y-4.2736
X6.5886Y-4.311
X6.5886Y-4.3917
X6.5886Y-4.4291
X6.6339Y-3.4843
X6.6535Y-3.7028
X6.6535Y-4.3917
X6.6535Y-4.5335
X6.7126Y-3.4843
X6.7126Y-4.7835
X6.7913Y-3.4843
X6.7913Y-4.7835
X6.811Y-4.5276
X6.8701Y-3.4843
X6.8701Y-4.7835
X6.9094Y-3.5827
X6.9488Y-4.7835
X6.9587Y-3.6909
X6.9685Y-4.5276
X7.0276Y-4.7835
X7.0374Y-3.7402
X7.0374Y-3.8189
X7.0374Y-3.8976
X7.0374Y-3.9764
X7.0374Y-4.0551
X7.0374Y-4.1339
X7.0374Y-4.2126
X7.0374Y-4.2913
X7.0374Y-4.3701
X7.0374Y-4.4488
X7.1063Y-4.7835
X7.1654Y-3.7402
X7.1654Y-4.5276
X7.1654Y-4.6063
X7.1654Y-4.685
T2
X4.65Y-4.0394
X4.65Y-4.0709
X4.65Y-4.1024
X4.65Y-4.1654
X4.65Y-4.1969
X4.65Y-4.2283
X4.6756Y-4.0236
X4.6756Y-4.0551
X4.6756Y-4.0866
X4.6756Y-4.1181
X4.6756Y-4.1496
X4.6756Y-4.1811
X4.6756Y-4.2126
X4.6756Y-4.2441
T4
X5.2969Y-3.5839
X5.3965Y-3.5839
X5.3965Y-4.6839
X5.4965Y-3.5839
X5.4965Y-4.6839
X5.5965Y-3.5839
X5.5965Y-4.6839
X5.6965Y-3.5839
X5.6965Y-4.6839
X5.7236Y-3.7402
X5.7965Y-3.5839
X5.7965Y-4.6839
X5.8236Y-3.7402
X5.8965Y-3.5839
X5.8965Y-4.6839
X5.9965Y-3.5839
X5.9965Y-4.6839
X6.0965Y-3.5839
X6.0965Y-4.6839
X6.1965Y-3.5839
X6.1965Y-4.6839
X6.2965Y-3.5839
X6.2965Y-4.6839
X6.4965Y-3.5839
X6.5965Y-3.5839
X6.8398Y-3.9839
X6.8398Y-4.0839
X6.8398Y-4.1839
X6.8398Y-4.2839
X6.9398Y-3.9839
X6.9398Y-4.0839
X6.9398Y-4.1839
X6.9398Y-4.2839
T5
X5.0591Y-3.5728
X6.6339Y-4.6949
T3
G00X4.4579Y-3.9657
M15
G01X4.4343Y-3.9657
M16
G05
G00X4.4579Y-4.302
M15
G01X4.4343Y-4.302
M16
G05
G00X4.6441Y-3.9657
M15
G01X4.6205Y-3.9657
M16
G05
G00X4.6441Y-4.302
M15
G01X4.6205Y-4.302
M16
G05
T0
M30
