%TF.GenerationSoftware,KiCad,Pcbnew,6.0.0*%
%TF.CreationDate,2022-09-17T11:35:23+02:00*%
%TF.ProjectId,cowprobe-rp,636f7770-726f-4626-952d-72702e6b6963,1*%
%TF.SameCoordinates,Original*%
%TF.FileFunction,Legend,Bot*%
%TF.FilePolarity,Positive*%
%FSLAX46Y46*%
G04 Gerber Fmt 4.6, Leading zero omitted, Abs format (unit mm)*
G04 Created by KiCad (PCBNEW 6.0.0) date 2022-09-17 11:35:23*
%MOMM*%
%LPD*%
G01*
G04 APERTURE LIST*
%ADD10C,0.101600*%
G04 APERTURE END LIST*
D10*
X137724714Y-112932897D02*
X137361857Y-112678897D01*
X137724714Y-112497468D02*
X136962714Y-112497468D01*
X136962714Y-112787754D01*
X136999000Y-112860325D01*
X137035285Y-112896611D01*
X137107857Y-112932897D01*
X137216714Y-112932897D01*
X137289285Y-112896611D01*
X137325571Y-112860325D01*
X137361857Y-112787754D01*
X137361857Y-112497468D01*
X137688428Y-113223182D02*
X137724714Y-113332040D01*
X137724714Y-113513468D01*
X137688428Y-113586040D01*
X137652142Y-113622325D01*
X137579571Y-113658611D01*
X137507000Y-113658611D01*
X137434428Y-113622325D01*
X137398142Y-113586040D01*
X137361857Y-113513468D01*
X137325571Y-113368325D01*
X137289285Y-113295754D01*
X137253000Y-113259468D01*
X137180428Y-113223182D01*
X137107857Y-113223182D01*
X137035285Y-113259468D01*
X136999000Y-113295754D01*
X136962714Y-113368325D01*
X136962714Y-113549754D01*
X136999000Y-113658611D01*
X136962714Y-113876325D02*
X136962714Y-114311754D01*
X137724714Y-114094040D02*
X136962714Y-114094040D01*
X132608428Y-112461182D02*
X132644714Y-112570040D01*
X132644714Y-112751468D01*
X132608428Y-112824040D01*
X132572142Y-112860325D01*
X132499571Y-112896611D01*
X132427000Y-112896611D01*
X132354428Y-112860325D01*
X132318142Y-112824040D01*
X132281857Y-112751468D01*
X132245571Y-112606325D01*
X132209285Y-112533754D01*
X132173000Y-112497468D01*
X132100428Y-112461182D01*
X132027857Y-112461182D01*
X131955285Y-112497468D01*
X131919000Y-112533754D01*
X131882714Y-112606325D01*
X131882714Y-112787754D01*
X131919000Y-112896611D01*
X131882714Y-113150611D02*
X132644714Y-113332040D01*
X132100428Y-113477182D01*
X132644714Y-113622325D01*
X131882714Y-113803754D01*
X132572142Y-114529468D02*
X132608428Y-114493182D01*
X132644714Y-114384325D01*
X132644714Y-114311754D01*
X132608428Y-114202897D01*
X132535857Y-114130325D01*
X132463285Y-114094040D01*
X132318142Y-114057754D01*
X132209285Y-114057754D01*
X132064142Y-114094040D01*
X131991571Y-114130325D01*
X131919000Y-114202897D01*
X131882714Y-114311754D01*
X131882714Y-114384325D01*
X131919000Y-114493182D01*
X131955285Y-114529468D01*
X132644714Y-115218897D02*
X132644714Y-114856040D01*
X131882714Y-114856040D01*
X132644714Y-115472897D02*
X131882714Y-115472897D01*
X132644714Y-115908325D02*
X132209285Y-115581754D01*
X131882714Y-115908325D02*
X132318142Y-115472897D01*
X129379000Y-112896611D02*
X129342714Y-112824040D01*
X129342714Y-112715182D01*
X129379000Y-112606325D01*
X129451571Y-112533754D01*
X129524142Y-112497468D01*
X129669285Y-112461182D01*
X129778142Y-112461182D01*
X129923285Y-112497468D01*
X129995857Y-112533754D01*
X130068428Y-112606325D01*
X130104714Y-112715182D01*
X130104714Y-112787754D01*
X130068428Y-112896611D01*
X130032142Y-112932897D01*
X129778142Y-112932897D01*
X129778142Y-112787754D01*
X130104714Y-113259468D02*
X129342714Y-113259468D01*
X130104714Y-113694897D01*
X129342714Y-113694897D01*
X130104714Y-114057754D02*
X129342714Y-114057754D01*
X129342714Y-114239182D01*
X129379000Y-114348040D01*
X129451571Y-114420611D01*
X129524142Y-114456897D01*
X129669285Y-114493182D01*
X129778142Y-114493182D01*
X129923285Y-114456897D01*
X129995857Y-114420611D01*
X130068428Y-114348040D01*
X130104714Y-114239182D01*
X130104714Y-114057754D01*
X135148428Y-112461182D02*
X135184714Y-112570040D01*
X135184714Y-112751468D01*
X135148428Y-112824040D01*
X135112142Y-112860325D01*
X135039571Y-112896611D01*
X134967000Y-112896611D01*
X134894428Y-112860325D01*
X134858142Y-112824040D01*
X134821857Y-112751468D01*
X134785571Y-112606325D01*
X134749285Y-112533754D01*
X134713000Y-112497468D01*
X134640428Y-112461182D01*
X134567857Y-112461182D01*
X134495285Y-112497468D01*
X134459000Y-112533754D01*
X134422714Y-112606325D01*
X134422714Y-112787754D01*
X134459000Y-112896611D01*
X134422714Y-113150611D02*
X135184714Y-113332040D01*
X134640428Y-113477182D01*
X135184714Y-113622325D01*
X134422714Y-113803754D01*
X135184714Y-114094040D02*
X134422714Y-114094040D01*
X134422714Y-114275468D01*
X134459000Y-114384325D01*
X134531571Y-114456897D01*
X134604142Y-114493182D01*
X134749285Y-114529468D01*
X134858142Y-114529468D01*
X135003285Y-114493182D01*
X135075857Y-114456897D01*
X135148428Y-114384325D01*
X135184714Y-114275468D01*
X135184714Y-114094040D01*
X135184714Y-114856040D02*
X134422714Y-114856040D01*
X134422714Y-115364040D02*
X134422714Y-115509182D01*
X134459000Y-115581754D01*
X134531571Y-115654325D01*
X134676714Y-115690611D01*
X134930714Y-115690611D01*
X135075857Y-115654325D01*
X135148428Y-115581754D01*
X135184714Y-115509182D01*
X135184714Y-115364040D01*
X135148428Y-115291468D01*
X135075857Y-115218897D01*
X134930714Y-115182611D01*
X134676714Y-115182611D01*
X134531571Y-115218897D01*
X134459000Y-115291468D01*
X134422714Y-115364040D01*
M02*
