%TF.GenerationSoftware,KiCad,Pcbnew,6.0.0*%
%TF.CreationDate,2022-09-17T11:35:24+02:00*%
%TF.ProjectId,cowprobe-rp,636f7770-726f-4626-952d-72702e6b6963,1*%
%TF.SameCoordinates,Original*%
%TF.FileFunction,Soldermask,Bot*%
%TF.FilePolarity,Negative*%
%FSLAX46Y46*%
G04 Gerber Fmt 4.6, Leading zero omitted, Abs format (unit mm)*
G04 Created by KiCad (PCBNEW 6.0.0) date 2022-09-17 11:35:24*
%MOMM*%
%LPD*%
G01*
G04 APERTURE LIST*
%ADD10C,1.750000*%
%ADD11R,1.750000X1.750000*%
%ADD12C,0.650000*%
%ADD13O,1.600000X1.000000*%
%ADD14C,3.500000*%
%ADD15C,0.750000*%
%ADD16C,0.700000*%
%ADD17C,1.198880*%
G04 APERTURE END LIST*
D10*
%TO.C,SW3*%
X145380000Y-95000000D03*
X147920000Y-95000000D03*
%TD*%
D11*
%TO.C,P4*%
X137070000Y-118970000D03*
D10*
X139610000Y-118970000D03*
X142150000Y-118970000D03*
X144690000Y-118970000D03*
X147230000Y-118970000D03*
X149770000Y-118970000D03*
X152310000Y-118970000D03*
X154850000Y-118970000D03*
X157390000Y-118970000D03*
X159930000Y-118970000D03*
%TD*%
D11*
%TO.C,P3*%
X137070000Y-91030000D03*
D10*
X139610000Y-91030000D03*
X142150000Y-91030000D03*
X144690000Y-91030000D03*
X147230000Y-91030000D03*
X149770000Y-91030000D03*
X152310000Y-91030000D03*
X154850000Y-91030000D03*
X157390000Y-91030000D03*
X159930000Y-91030000D03*
%TD*%
D11*
%TO.C,P2*%
X173730000Y-101190000D03*
D10*
X176270000Y-101190000D03*
X173730000Y-103730000D03*
X176270000Y-103730000D03*
X173730000Y-106270000D03*
X176270000Y-106270000D03*
X173730000Y-108810000D03*
X176270000Y-108810000D03*
%TD*%
%TO.C,P6*%
X165010000Y-91030000D03*
X167550000Y-91030000D03*
%TD*%
D12*
%TO.C,P1*%
X118760000Y-107800000D03*
X118110000Y-107400000D03*
X118110000Y-106600000D03*
X118760000Y-106200000D03*
X118110000Y-105800000D03*
X118760000Y-105400000D03*
X118760000Y-104600000D03*
X118110000Y-104200000D03*
X118760000Y-103800000D03*
X118110000Y-103400000D03*
X118110000Y-102600000D03*
X118760000Y-102200000D03*
X118760000Y-107000000D03*
X118760000Y-103000000D03*
D13*
X112930000Y-109270000D03*
X112930000Y-100730000D03*
X117660000Y-109270000D03*
X117660000Y-100730000D03*
%TD*%
D14*
%TO.C,FIX1*%
X128500000Y-90750000D03*
%TD*%
D15*
%TO.C,SW1*%
X112625000Y-94000000D03*
D16*
X115375000Y-94000000D03*
%TD*%
D14*
%TO.C,FIX2*%
X168500000Y-119250000D03*
%TD*%
D10*
%TO.C,P5*%
X134540000Y-91030000D03*
%TD*%
D17*
%TO.C,TP3*%
X138130000Y-111500000D03*
%TD*%
%TO.C,TP6*%
X130510000Y-111500000D03*
%TD*%
%TO.C,TP4*%
X133050000Y-111500000D03*
%TD*%
%TO.C,TP5*%
X135590000Y-111500000D03*
%TD*%
M02*
